<svg id="Layer_1" height="512" viewBox="0 0 150 150" width="512" xmlns="http://www.w3.org/2000/svg" data-name="Layer 1"><circle cx="75" cy="75" fill="#21b3a9" r="64"/><path d="m40.2 58.61v44.68a3.06 3.06 0 0 0 3.06 3.06h63.48a3.06 3.06 0 0 0 3.06-3.06v-44.68z" fill="#e1e6e9"/><path d="m109.8 60.33v-10.77a3.06 3.06 0 0 0 -3.06-3.06h-63.48a3.06 3.06 0 0 0 -3.06 3.06v10.77z" fill="#e56353"/><path d="m101 48.85a2.22 2.22 0 1 0 2.22 2.21 2.21 2.21 0 0 0 -2.22-2.21z" fill="#d15241"/><path d="m92.32 48.85a2.22 2.22 0 1 0 2.22 2.21 2.22 2.22 0 0 0 -2.22-2.21z" fill="#d15241"/><path d="m83.66 48.85a2.22 2.22 0 1 0 2.22 2.21 2.22 2.22 0 0 0 -2.22-2.21z" fill="#d15241"/><path d="m75 48.85a2.22 2.22 0 1 0 2.22 2.21 2.22 2.22 0 0 0 -2.22-2.21z" fill="#d15241"/><path d="m66.34 48.85a2.22 2.22 0 1 0 2.22 2.21 2.21 2.21 0 0 0 -2.22-2.21z" fill="#d15241"/><path d="m57.68 48.85a2.22 2.22 0 1 0 2.22 2.21 2.21 2.21 0 0 0 -2.22-2.21z" fill="#d15241"/><path d="m49 48.85a2.22 2.22 0 1 0 2.21 2.21 2.21 2.21 0 0 0 -2.21-2.21z" fill="#d15241"/><g fill="#d5d6db"><path d="m49 43.65a1.34 1.34 0 0 0 -1.32 1.35v5.93a1.34 1.34 0 1 0 2.68 0v-5.93a1.34 1.34 0 0 0 -1.36-1.35z"/><path d="m57.68 43.65a1.34 1.34 0 0 0 -1.34 1.35v5.93a1.34 1.34 0 0 0 2.68 0v-5.93a1.34 1.34 0 0 0 -1.34-1.35z"/><path d="m66.34 43.65a1.34 1.34 0 0 0 -1.34 1.35v5.93a1.34 1.34 0 1 0 2.68 0v-5.93a1.34 1.34 0 0 0 -1.34-1.35z"/><path d="m75 43.65a1.34 1.34 0 0 0 -1.34 1.35v5.93a1.34 1.34 0 1 0 2.68 0v-5.93a1.34 1.34 0 0 0 -1.34-1.35z"/><path d="m83.66 43.65a1.34 1.34 0 0 0 -1.34 1.35v5.93a1.34 1.34 0 1 0 2.68 0v-5.93a1.34 1.34 0 0 0 -1.34-1.35z"/><path d="m92.32 43.65a1.34 1.34 0 0 0 -1.32 1.35v5.93a1.34 1.34 0 0 0 2.68 0v-5.93a1.34 1.34 0 0 0 -1.36-1.35z"/><path d="m101 43.65a1.34 1.34 0 0 0 -1.36 1.35v5.93a1.34 1.34 0 1 0 2.68 0v-5.93a1.34 1.34 0 0 0 -1.32-1.35z"/><path d="m63.49 65.97h8.66v8.66h-8.66z"/><path d="m77.85 65.97h8.66v8.66h-8.66z"/><path d="m92.21 65.97h8.66v8.66h-8.66z"/><path d="m49.13 78.72h8.66v8.66h-8.66z"/><path d="m63.49 78.72h8.66v8.66h-8.66z"/><path d="m77.85 78.72h8.66v8.66h-8.66z"/><path d="m92.21 78.72h8.66v8.66h-8.66z"/><path d="m49.13 91.47h8.66v8.66h-8.66z"/><path d="m63.49 91.47h8.66v8.66h-8.66z"/><path d="m77.85 91.47h8.66v8.66h-8.66z"/></g></svg>